<svg xmlns="http://www.w3.org/2000/svg" viewBox="0 0 1200 675" width="1200" height="675" role="img" aria-label="Dissonant Decay : Soundscape Sampler, Dark Ambient horror cue, 1m 00s">
<rect width="1200" height="675" fill="#050505"/>
<g><rect x="1.0" y="318.5" width="10.5" height="63" fill="#c41e1e" opacity="0.53"/><rect x="13.5" y="313.0" width="10.5" height="74" fill="#c41e1e" opacity="0.55"/><rect x="26.0" y="305.5" width="10.5" height="89" fill="#c41e1e" opacity="0.57"/><rect x="38.5" y="311.0" width="10.5" height="78" fill="#ff2a2a" opacity="0.55"/><rect x="51.0" y="300.5" width="10.5" height="99" fill="#c41e1e" opacity="0.58"/><rect x="63.5" y="301.5" width="10.5" height="97" fill="#c41e1e" opacity="0.58"/><rect x="76.0" y="296.5" width="10.5" height="107" fill="#c41e1e" opacity="0.59"/><rect x="88.5" y="301.5" width="10.5" height="97" fill="#c41e1e" opacity="0.58"/><rect x="101.0" y="297.0" width="10.5" height="106" fill="#c41e1e" opacity="0.59"/><rect x="113.5" y="279.5" width="10.5" height="141" fill="#c41e1e" opacity="0.63"/><rect x="126.0" y="293.0" width="10.5" height="114" fill="#ff2a2a" opacity="0.60"/><rect x="138.5" y="279.5" width="10.5" height="141" fill="#c41e1e" opacity="0.63"/><rect x="151.0" y="269.0" width="10.5" height="162" fill="#c41e1e" opacity="0.66"/><rect x="163.5" y="249.0" width="10.5" height="202" fill="#c41e1e" opacity="0.71"/><rect x="176.0" y="277.5" width="10.5" height="145" fill="#c41e1e" opacity="0.64"/><rect x="188.5" y="233.5" width="10.5" height="233" fill="#c41e1e" opacity="0.75"/><rect x="201.0" y="250.0" width="10.5" height="200" fill="#c41e1e" opacity="0.71"/><rect x="213.5" y="259.0" width="10.5" height="182" fill="#ff2a2a" opacity="0.69"/><rect x="226.0" y="249.5" width="10.5" height="201" fill="#c41e1e" opacity="0.71"/><rect x="238.5" y="248.5" width="10.5" height="203" fill="#c41e1e" opacity="0.72"/><rect x="251.0" y="227.5" width="10.5" height="245" fill="#c41e1e" opacity="0.77"/><rect x="263.5" y="240.0" width="10.5" height="220" fill="#c41e1e" opacity="0.74"/><rect x="276.0" y="238.0" width="10.5" height="224" fill="#c41e1e" opacity="0.74"/><rect x="288.5" y="243.0" width="10.5" height="214" fill="#c41e1e" opacity="0.73"/><rect x="301.0" y="213.5" width="10.5" height="273" fill="#ff2a2a" opacity="0.81"/><rect x="313.5" y="199.0" width="10.5" height="302" fill="#c41e1e" opacity="0.85"/><rect x="326.0" y="214.5" width="10.5" height="271" fill="#c41e1e" opacity="0.80"/><rect x="338.5" y="185.0" width="10.5" height="330" fill="#c41e1e" opacity="0.88"/><rect x="351.0" y="213.0" width="10.5" height="274" fill="#c41e1e" opacity="0.81"/><rect x="363.5" y="248.5" width="10.5" height="203" fill="#c41e1e" opacity="0.72"/><rect x="376.0" y="203.0" width="10.5" height="294" fill="#c41e1e" opacity="0.84"/><rect x="388.5" y="242.5" width="10.5" height="215" fill="#ff2a2a" opacity="0.73"/><rect x="401.0" y="245.0" width="10.5" height="210" fill="#c41e1e" opacity="0.73"/><rect x="413.5" y="239.0" width="10.5" height="222" fill="#c41e1e" opacity="0.74"/><rect x="426.0" y="242.0" width="10.5" height="216" fill="#c41e1e" opacity="0.73"/><rect x="438.5" y="206.0" width="10.5" height="288" fill="#c41e1e" opacity="0.83"/><rect x="451.0" y="159.5" width="10.5" height="381" fill="#c41e1e" opacity="0.95"/><rect x="463.5" y="231.5" width="10.5" height="237" fill="#c41e1e" opacity="0.76"/><rect x="476.0" y="232.5" width="10.5" height="235" fill="#ff2a2a" opacity="0.76"/><rect x="488.5" y="229.5" width="10.5" height="241" fill="#c41e1e" opacity="0.77"/><rect x="501.0" y="127.0" width="10.5" height="446" fill="#c41e1e" opacity="1.03"/><rect x="513.5" y="181.5" width="10.5" height="337" fill="#c41e1e" opacity="0.89"/><rect x="526.0" y="166.0" width="10.5" height="368" fill="#c41e1e" opacity="0.93"/><rect x="538.5" y="143.0" width="10.5" height="414" fill="#c41e1e" opacity="0.99"/><rect x="551.0" y="133.5" width="10.5" height="433" fill="#c41e1e" opacity="1.02"/><rect x="563.5" y="155.0" width="10.5" height="390" fill="#ff2a2a" opacity="0.96"/><rect x="576.0" y="183.5" width="10.5" height="333" fill="#c41e1e" opacity="0.89"/><rect x="588.5" y="238.0" width="10.5" height="224" fill="#c41e1e" opacity="0.74"/><rect x="601.0" y="170.5" width="10.5" height="359" fill="#c41e1e" opacity="0.92"/><rect x="613.5" y="181.5" width="10.5" height="337" fill="#c41e1e" opacity="0.89"/><rect x="626.0" y="134.5" width="10.5" height="431" fill="#c41e1e" opacity="1.01"/><rect x="638.5" y="124.5" width="10.5" height="451" fill="#c41e1e" opacity="1.04"/><rect x="651.0" y="236.0" width="10.5" height="228" fill="#ff2a2a" opacity="0.75"/><rect x="663.5" y="141.0" width="10.5" height="418" fill="#c41e1e" opacity="1.00"/><rect x="676.0" y="211.0" width="10.5" height="278" fill="#c41e1e" opacity="0.81"/><rect x="688.5" y="211.0" width="10.5" height="278" fill="#c41e1e" opacity="0.81"/><rect x="701.0" y="132.5" width="10.5" height="435" fill="#c41e1e" opacity="1.02"/><rect x="713.5" y="219.0" width="10.5" height="262" fill="#c41e1e" opacity="0.79"/><rect x="726.0" y="171.5" width="10.5" height="357" fill="#c41e1e" opacity="0.92"/><rect x="738.5" y="188.5" width="10.5" height="323" fill="#ff2a2a" opacity="0.87"/><rect x="751.0" y="216.0" width="10.5" height="268" fill="#c41e1e" opacity="0.80"/><rect x="763.5" y="184.0" width="10.5" height="332" fill="#c41e1e" opacity="0.88"/><rect x="776.0" y="188.0" width="10.5" height="324" fill="#c41e1e" opacity="0.87"/><rect x="788.5" y="176.5" width="10.5" height="347" fill="#c41e1e" opacity="0.91"/><rect x="801.0" y="242.5" width="10.5" height="215" fill="#c41e1e" opacity="0.73"/><rect x="813.5" y="242.0" width="10.5" height="216" fill="#c41e1e" opacity="0.73"/><rect x="826.0" y="240.0" width="10.5" height="220" fill="#ff2a2a" opacity="0.74"/><rect x="838.5" y="168.5" width="10.5" height="363" fill="#c41e1e" opacity="0.92"/><rect x="851.0" y="172.5" width="10.5" height="355" fill="#c41e1e" opacity="0.91"/><rect x="863.5" y="227.0" width="10.5" height="246" fill="#c41e1e" opacity="0.77"/><rect x="876.0" y="228.0" width="10.5" height="244" fill="#c41e1e" opacity="0.77"/><rect x="888.5" y="214.5" width="10.5" height="271" fill="#c41e1e" opacity="0.81"/><rect x="901.0" y="181.5" width="10.5" height="337" fill="#c41e1e" opacity="0.89"/><rect x="913.5" y="228.0" width="10.5" height="244" fill="#ff2a2a" opacity="0.77"/><rect x="926.0" y="206.5" width="10.5" height="287" fill="#c41e1e" opacity="0.83"/><rect x="938.5" y="229.5" width="10.5" height="241" fill="#c41e1e" opacity="0.77"/><rect x="951.0" y="203.5" width="10.5" height="293" fill="#c41e1e" opacity="0.83"/><rect x="963.5" y="222.0" width="10.5" height="256" fill="#c41e1e" opacity="0.79"/><rect x="976.0" y="269.0" width="10.5" height="162" fill="#c41e1e" opacity="0.66"/><rect x="988.5" y="241.0" width="10.5" height="218" fill="#c41e1e" opacity="0.73"/><rect x="1001.0" y="283.0" width="10.5" height="134" fill="#ff2a2a" opacity="0.63"/><rect x="1013.5" y="284.5" width="10.5" height="131" fill="#c41e1e" opacity="0.62"/><rect x="1026.0" y="267.5" width="10.5" height="165" fill="#c41e1e" opacity="0.67"/><rect x="1038.5" y="254.0" width="10.5" height="192" fill="#c41e1e" opacity="0.70"/><rect x="1051.0" y="257.5" width="10.5" height="185" fill="#c41e1e" opacity="0.69"/><rect x="1063.5" y="275.5" width="10.5" height="149" fill="#c41e1e" opacity="0.64"/><rect x="1076.0" y="274.5" width="10.5" height="151" fill="#c41e1e" opacity="0.65"/><rect x="1088.5" y="297.0" width="10.5" height="106" fill="#ff2a2a" opacity="0.59"/><rect x="1101.0" y="287.0" width="10.5" height="126" fill="#c41e1e" opacity="0.61"/><rect x="1113.5" y="283.0" width="10.5" height="134" fill="#c41e1e" opacity="0.63"/><rect x="1126.0" y="299.0" width="10.5" height="102" fill="#c41e1e" opacity="0.58"/><rect x="1138.5" y="293.5" width="10.5" height="113" fill="#c41e1e" opacity="0.60"/><rect x="1151.0" y="309.5" width="10.5" height="81" fill="#c41e1e" opacity="0.56"/><rect x="1163.5" y="308.0" width="10.5" height="84" fill="#c41e1e" opacity="0.56"/><rect x="1176.0" y="314.5" width="10.5" height="71" fill="#ff2a2a" opacity="0.54"/><rect x="1188.5" y="318.5" width="10.5" height="63" fill="#c41e1e" opacity="0.53"/></g>
<text x="40" y="80" fill="#9a9590" font-family="Helvetica,Arial,sans-serif" font-size="20" letter-spacing="6">CUE 26 · DARK AMBIENT</text>
<text x="40" y="630" fill="#f0ebe3" font-family="Georgia,serif" font-size="32">Dissonant Decay : Soundscape Sampler</text>
<text x="1160" y="630" text-anchor="end" fill="#9a9590" font-family="Helvetica,Arial,sans-serif" font-size="24" letter-spacing="3">1:00</text>
</svg>
