<svg xmlns="http://www.w3.org/2000/svg" viewBox="0 0 1200 675" width="1200" height="675" role="img" aria-label="Hidden Intentions / Serene Purgatory, Dark Ambient horror cue, 1m 02s">
<rect width="1200" height="675" fill="#050505"/>
<g><rect x="1.0" y="318.5" width="10.5" height="63" fill="#c41e1e" opacity="0.53"/><rect x="13.5" y="314.5" width="10.5" height="71" fill="#c41e1e" opacity="0.54"/><rect x="26.0" y="313.0" width="10.5" height="74" fill="#c41e1e" opacity="0.55"/><rect x="38.5" y="303.0" width="10.5" height="94" fill="#ff2a2a" opacity="0.57"/><rect x="51.0" y="308.0" width="10.5" height="84" fill="#c41e1e" opacity="0.56"/><rect x="63.5" y="305.5" width="10.5" height="89" fill="#c41e1e" opacity="0.57"/><rect x="76.0" y="297.5" width="10.5" height="105" fill="#c41e1e" opacity="0.59"/><rect x="88.5" y="282.0" width="10.5" height="136" fill="#c41e1e" opacity="0.63"/><rect x="101.0" y="293.0" width="10.5" height="114" fill="#c41e1e" opacity="0.60"/><rect x="113.5" y="262.5" width="10.5" height="175" fill="#c41e1e" opacity="0.68"/><rect x="126.0" y="288.0" width="10.5" height="124" fill="#ff2a2a" opacity="0.61"/><rect x="138.5" y="252.0" width="10.5" height="196" fill="#c41e1e" opacity="0.71"/><rect x="151.0" y="253.0" width="10.5" height="194" fill="#c41e1e" opacity="0.70"/><rect x="163.5" y="267.0" width="10.5" height="166" fill="#c41e1e" opacity="0.67"/><rect x="176.0" y="253.5" width="10.5" height="193" fill="#c41e1e" opacity="0.70"/><rect x="188.5" y="283.0" width="10.5" height="134" fill="#c41e1e" opacity="0.63"/><rect x="201.0" y="259.0" width="10.5" height="182" fill="#c41e1e" opacity="0.69"/><rect x="213.5" y="226.5" width="10.5" height="247" fill="#ff2a2a" opacity="0.77"/><rect x="226.0" y="218.5" width="10.5" height="263" fill="#c41e1e" opacity="0.79"/><rect x="238.5" y="211.5" width="10.5" height="277" fill="#c41e1e" opacity="0.81"/><rect x="251.0" y="273.5" width="10.5" height="153" fill="#c41e1e" opacity="0.65"/><rect x="263.5" y="242.5" width="10.5" height="215" fill="#c41e1e" opacity="0.73"/><rect x="276.0" y="265.5" width="10.5" height="169" fill="#c41e1e" opacity="0.67"/><rect x="288.5" y="247.5" width="10.5" height="205" fill="#c41e1e" opacity="0.72"/><rect x="301.0" y="178.5" width="10.5" height="343" fill="#ff2a2a" opacity="0.90"/><rect x="313.5" y="229.0" width="10.5" height="242" fill="#c41e1e" opacity="0.77"/><rect x="326.0" y="207.0" width="10.5" height="286" fill="#c41e1e" opacity="0.82"/><rect x="338.5" y="183.5" width="10.5" height="333" fill="#c41e1e" opacity="0.89"/><rect x="351.0" y="238.0" width="10.5" height="224" fill="#c41e1e" opacity="0.74"/><rect x="363.5" y="169.0" width="10.5" height="362" fill="#c41e1e" opacity="0.92"/><rect x="376.0" y="217.5" width="10.5" height="265" fill="#c41e1e" opacity="0.80"/><rect x="388.5" y="166.0" width="10.5" height="368" fill="#ff2a2a" opacity="0.93"/><rect x="401.0" y="201.0" width="10.5" height="298" fill="#c41e1e" opacity="0.84"/><rect x="413.5" y="150.5" width="10.5" height="399" fill="#c41e1e" opacity="0.97"/><rect x="426.0" y="140.5" width="10.5" height="419" fill="#c41e1e" opacity="1.00"/><rect x="438.5" y="149.5" width="10.5" height="401" fill="#c41e1e" opacity="0.97"/><rect x="451.0" y="243.0" width="10.5" height="214" fill="#c41e1e" opacity="0.73"/><rect x="463.5" y="228.5" width="10.5" height="243" fill="#c41e1e" opacity="0.77"/><rect x="476.0" y="144.0" width="10.5" height="412" fill="#ff2a2a" opacity="0.99"/><rect x="488.5" y="179.0" width="10.5" height="342" fill="#c41e1e" opacity="0.90"/><rect x="501.0" y="138.0" width="10.5" height="424" fill="#c41e1e" opacity="1.01"/><rect x="513.5" y="192.5" width="10.5" height="315" fill="#c41e1e" opacity="0.86"/><rect x="526.0" y="222.5" width="10.5" height="255" fill="#c41e1e" opacity="0.78"/><rect x="538.5" y="227.0" width="10.5" height="246" fill="#c41e1e" opacity="0.77"/><rect x="551.0" y="176.5" width="10.5" height="347" fill="#c41e1e" opacity="0.90"/><rect x="563.5" y="160.0" width="10.5" height="380" fill="#ff2a2a" opacity="0.95"/><rect x="576.0" y="238.0" width="10.5" height="224" fill="#c41e1e" opacity="0.74"/><rect x="588.5" y="231.0" width="10.5" height="238" fill="#c41e1e" opacity="0.76"/><rect x="601.0" y="198.5" width="10.5" height="303" fill="#c41e1e" opacity="0.85"/><rect x="613.5" y="212.0" width="10.5" height="276" fill="#c41e1e" opacity="0.81"/><rect x="626.0" y="138.0" width="10.5" height="424" fill="#c41e1e" opacity="1.01"/><rect x="638.5" y="159.5" width="10.5" height="381" fill="#c41e1e" opacity="0.95"/><rect x="651.0" y="241.0" width="10.5" height="218" fill="#ff2a2a" opacity="0.74"/><rect x="663.5" y="146.0" width="10.5" height="408" fill="#c41e1e" opacity="0.98"/><rect x="676.0" y="167.0" width="10.5" height="366" fill="#c41e1e" opacity="0.93"/><rect x="688.5" y="185.5" width="10.5" height="329" fill="#c41e1e" opacity="0.88"/><rect x="701.0" y="220.0" width="10.5" height="260" fill="#c41e1e" opacity="0.79"/><rect x="713.5" y="220.0" width="10.5" height="260" fill="#c41e1e" opacity="0.79"/><rect x="726.0" y="237.0" width="10.5" height="226" fill="#c41e1e" opacity="0.75"/><rect x="738.5" y="234.5" width="10.5" height="231" fill="#ff2a2a" opacity="0.75"/><rect x="751.0" y="196.0" width="10.5" height="308" fill="#c41e1e" opacity="0.85"/><rect x="763.5" y="156.5" width="10.5" height="387" fill="#c41e1e" opacity="0.96"/><rect x="776.0" y="251.5" width="10.5" height="197" fill="#c41e1e" opacity="0.71"/><rect x="788.5" y="207.0" width="10.5" height="286" fill="#c41e1e" opacity="0.82"/><rect x="801.0" y="174.5" width="10.5" height="351" fill="#c41e1e" opacity="0.91"/><rect x="813.5" y="156.5" width="10.5" height="387" fill="#c41e1e" opacity="0.96"/><rect x="826.0" y="188.0" width="10.5" height="324" fill="#ff2a2a" opacity="0.87"/><rect x="838.5" y="240.5" width="10.5" height="219" fill="#c41e1e" opacity="0.74"/><rect x="851.0" y="259.0" width="10.5" height="182" fill="#c41e1e" opacity="0.69"/><rect x="863.5" y="179.0" width="10.5" height="342" fill="#c41e1e" opacity="0.90"/><rect x="876.0" y="197.0" width="10.5" height="306" fill="#c41e1e" opacity="0.85"/><rect x="888.5" y="265.5" width="10.5" height="169" fill="#c41e1e" opacity="0.67"/><rect x="901.0" y="242.0" width="10.5" height="216" fill="#c41e1e" opacity="0.73"/><rect x="913.5" y="203.5" width="10.5" height="293" fill="#ff2a2a" opacity="0.83"/><rect x="926.0" y="245.5" width="10.5" height="209" fill="#c41e1e" opacity="0.72"/><rect x="938.5" y="243.5" width="10.5" height="213" fill="#c41e1e" opacity="0.73"/><rect x="951.0" y="250.0" width="10.5" height="200" fill="#c41e1e" opacity="0.71"/><rect x="963.5" y="210.0" width="10.5" height="280" fill="#c41e1e" opacity="0.82"/><rect x="976.0" y="255.5" width="10.5" height="189" fill="#c41e1e" opacity="0.70"/><rect x="988.5" y="244.5" width="10.5" height="211" fill="#c41e1e" opacity="0.73"/><rect x="1001.0" y="246.0" width="10.5" height="208" fill="#ff2a2a" opacity="0.72"/><rect x="1013.5" y="230.5" width="10.5" height="239" fill="#c41e1e" opacity="0.76"/><rect x="1026.0" y="245.0" width="10.5" height="210" fill="#c41e1e" opacity="0.72"/><rect x="1038.5" y="260.5" width="10.5" height="179" fill="#c41e1e" opacity="0.68"/><rect x="1051.0" y="264.5" width="10.5" height="171" fill="#c41e1e" opacity="0.67"/><rect x="1063.5" y="274.5" width="10.5" height="151" fill="#c41e1e" opacity="0.65"/><rect x="1076.0" y="264.0" width="10.5" height="172" fill="#c41e1e" opacity="0.67"/><rect x="1088.5" y="292.0" width="10.5" height="116" fill="#ff2a2a" opacity="0.60"/><rect x="1101.0" y="282.0" width="10.5" height="136" fill="#c41e1e" opacity="0.63"/><rect x="1113.5" y="283.0" width="10.5" height="134" fill="#c41e1e" opacity="0.63"/><rect x="1126.0" y="303.5" width="10.5" height="93" fill="#c41e1e" opacity="0.57"/><rect x="1138.5" y="307.5" width="10.5" height="85" fill="#c41e1e" opacity="0.56"/><rect x="1151.0" y="309.5" width="10.5" height="81" fill="#c41e1e" opacity="0.56"/><rect x="1163.5" y="310.5" width="10.5" height="79" fill="#c41e1e" opacity="0.55"/><rect x="1176.0" y="315.5" width="10.5" height="69" fill="#ff2a2a" opacity="0.54"/><rect x="1188.5" y="318.5" width="10.5" height="63" fill="#c41e1e" opacity="0.53"/></g>
<text x="40" y="80" fill="#9a9590" font-family="Helvetica,Arial,sans-serif" font-size="20" letter-spacing="6">CUE 05 · DARK AMBIENT</text>
<text x="40" y="630" fill="#f0ebe3" font-family="Georgia,serif" font-size="32">Hidden Intentions / Serene Purgatory</text>
<text x="1160" y="630" text-anchor="end" fill="#9a9590" font-family="Helvetica,Arial,sans-serif" font-size="24" letter-spacing="3">1:02</text>
</svg>
