<svg xmlns="http://www.w3.org/2000/svg" viewBox="0 0 1200 675" width="1200" height="675" role="img" aria-label="Opaline Lament (Life From The Beyond), Psychological Orchestral horror cue, 2m 24s">
<rect width="1200" height="675" fill="#050505"/>
<g><rect x="1.0" y="318.5" width="10.5" height="63" fill="#c41e1e" opacity="0.53"/><rect x="13.5" y="312.5" width="10.5" height="75" fill="#c41e1e" opacity="0.55"/><rect x="26.0" y="309.5" width="10.5" height="81" fill="#c41e1e" opacity="0.56"/><rect x="38.5" y="299.0" width="10.5" height="102" fill="#ff2a2a" opacity="0.58"/><rect x="51.0" y="293.0" width="10.5" height="114" fill="#c41e1e" opacity="0.60"/><rect x="63.5" y="306.0" width="10.5" height="88" fill="#c41e1e" opacity="0.57"/><rect x="76.0" y="288.0" width="10.5" height="124" fill="#c41e1e" opacity="0.61"/><rect x="88.5" y="295.0" width="10.5" height="110" fill="#c41e1e" opacity="0.59"/><rect x="101.0" y="266.5" width="10.5" height="167" fill="#c41e1e" opacity="0.67"/><rect x="113.5" y="284.0" width="10.5" height="132" fill="#c41e1e" opacity="0.62"/><rect x="126.0" y="279.5" width="10.5" height="141" fill="#ff2a2a" opacity="0.63"/><rect x="138.5" y="268.0" width="10.5" height="164" fill="#c41e1e" opacity="0.66"/><rect x="151.0" y="269.5" width="10.5" height="161" fill="#c41e1e" opacity="0.66"/><rect x="163.5" y="270.0" width="10.5" height="160" fill="#c41e1e" opacity="0.66"/><rect x="176.0" y="261.5" width="10.5" height="177" fill="#c41e1e" opacity="0.68"/><rect x="188.5" y="235.5" width="10.5" height="229" fill="#c41e1e" opacity="0.75"/><rect x="201.0" y="267.0" width="10.5" height="166" fill="#c41e1e" opacity="0.67"/><rect x="213.5" y="250.5" width="10.5" height="199" fill="#ff2a2a" opacity="0.71"/><rect x="226.0" y="254.0" width="10.5" height="192" fill="#c41e1e" opacity="0.70"/><rect x="238.5" y="254.5" width="10.5" height="191" fill="#c41e1e" opacity="0.70"/><rect x="251.0" y="225.5" width="10.5" height="249" fill="#c41e1e" opacity="0.78"/><rect x="263.5" y="260.5" width="10.5" height="179" fill="#c41e1e" opacity="0.68"/><rect x="276.0" y="198.0" width="10.5" height="304" fill="#c41e1e" opacity="0.85"/><rect x="288.5" y="213.0" width="10.5" height="274" fill="#c41e1e" opacity="0.81"/><rect x="301.0" y="195.0" width="10.5" height="310" fill="#ff2a2a" opacity="0.86"/><rect x="313.5" y="226.0" width="10.5" height="248" fill="#c41e1e" opacity="0.78"/><rect x="326.0" y="197.0" width="10.5" height="306" fill="#c41e1e" opacity="0.85"/><rect x="338.5" y="194.5" width="10.5" height="311" fill="#c41e1e" opacity="0.86"/><rect x="351.0" y="182.5" width="10.5" height="335" fill="#c41e1e" opacity="0.89"/><rect x="363.5" y="243.5" width="10.5" height="213" fill="#c41e1e" opacity="0.73"/><rect x="376.0" y="171.0" width="10.5" height="358" fill="#c41e1e" opacity="0.92"/><rect x="388.5" y="218.5" width="10.5" height="263" fill="#ff2a2a" opacity="0.79"/><rect x="401.0" y="208.0" width="10.5" height="284" fill="#c41e1e" opacity="0.82"/><rect x="413.5" y="225.5" width="10.5" height="249" fill="#c41e1e" opacity="0.78"/><rect x="426.0" y="203.0" width="10.5" height="294" fill="#c41e1e" opacity="0.83"/><rect x="438.5" y="244.0" width="10.5" height="212" fill="#c41e1e" opacity="0.73"/><rect x="451.0" y="183.0" width="10.5" height="334" fill="#c41e1e" opacity="0.89"/><rect x="463.5" y="247.5" width="10.5" height="205" fill="#c41e1e" opacity="0.72"/><rect x="476.0" y="172.0" width="10.5" height="356" fill="#ff2a2a" opacity="0.92"/><rect x="488.5" y="222.5" width="10.5" height="255" fill="#c41e1e" opacity="0.78"/><rect x="501.0" y="140.0" width="10.5" height="420" fill="#c41e1e" opacity="1.00"/><rect x="513.5" y="190.5" width="10.5" height="319" fill="#c41e1e" opacity="0.87"/><rect x="526.0" y="231.5" width="10.5" height="237" fill="#c41e1e" opacity="0.76"/><rect x="538.5" y="126.0" width="10.5" height="448" fill="#c41e1e" opacity="1.04"/><rect x="551.0" y="180.5" width="10.5" height="339" fill="#c41e1e" opacity="0.89"/><rect x="563.5" y="207.0" width="10.5" height="286" fill="#ff2a2a" opacity="0.82"/><rect x="576.0" y="142.5" width="10.5" height="415" fill="#c41e1e" opacity="0.99"/><rect x="588.5" y="177.5" width="10.5" height="345" fill="#c41e1e" opacity="0.90"/><rect x="601.0" y="170.5" width="10.5" height="359" fill="#c41e1e" opacity="0.92"/><rect x="613.5" y="125.5" width="10.5" height="449" fill="#c41e1e" opacity="1.04"/><rect x="626.0" y="236.0" width="10.5" height="228" fill="#c41e1e" opacity="0.75"/><rect x="638.5" y="173.5" width="10.5" height="353" fill="#c41e1e" opacity="0.91"/><rect x="651.0" y="191.0" width="10.5" height="318" fill="#ff2a2a" opacity="0.87"/><rect x="663.5" y="185.5" width="10.5" height="329" fill="#c41e1e" opacity="0.88"/><rect x="676.0" y="190.5" width="10.5" height="319" fill="#c41e1e" opacity="0.87"/><rect x="688.5" y="234.5" width="10.5" height="231" fill="#c41e1e" opacity="0.75"/><rect x="701.0" y="141.5" width="10.5" height="417" fill="#c41e1e" opacity="1.00"/><rect x="713.5" y="202.5" width="10.5" height="295" fill="#c41e1e" opacity="0.84"/><rect x="726.0" y="141.5" width="10.5" height="417" fill="#c41e1e" opacity="1.00"/><rect x="738.5" y="146.5" width="10.5" height="407" fill="#ff2a2a" opacity="0.98"/><rect x="751.0" y="199.5" width="10.5" height="301" fill="#c41e1e" opacity="0.84"/><rect x="763.5" y="238.5" width="10.5" height="223" fill="#c41e1e" opacity="0.74"/><rect x="776.0" y="225.5" width="10.5" height="249" fill="#c41e1e" opacity="0.78"/><rect x="788.5" y="220.0" width="10.5" height="260" fill="#c41e1e" opacity="0.79"/><rect x="801.0" y="178.0" width="10.5" height="344" fill="#c41e1e" opacity="0.90"/><rect x="813.5" y="208.0" width="10.5" height="284" fill="#c41e1e" opacity="0.82"/><rect x="826.0" y="251.0" width="10.5" height="198" fill="#ff2a2a" opacity="0.71"/><rect x="838.5" y="239.5" width="10.5" height="221" fill="#c41e1e" opacity="0.74"/><rect x="851.0" y="189.0" width="10.5" height="322" fill="#c41e1e" opacity="0.87"/><rect x="863.5" y="224.5" width="10.5" height="251" fill="#c41e1e" opacity="0.78"/><rect x="876.0" y="260.5" width="10.5" height="179" fill="#c41e1e" opacity="0.68"/><rect x="888.5" y="190.5" width="10.5" height="319" fill="#c41e1e" opacity="0.87"/><rect x="901.0" y="194.0" width="10.5" height="312" fill="#c41e1e" opacity="0.86"/><rect x="913.5" y="202.5" width="10.5" height="295" fill="#ff2a2a" opacity="0.84"/><rect x="926.0" y="202.0" width="10.5" height="296" fill="#c41e1e" opacity="0.84"/><rect x="938.5" y="211.5" width="10.5" height="277" fill="#c41e1e" opacity="0.81"/><rect x="951.0" y="261.5" width="10.5" height="177" fill="#c41e1e" opacity="0.68"/><rect x="963.5" y="220.0" width="10.5" height="260" fill="#c41e1e" opacity="0.79"/><rect x="976.0" y="225.0" width="10.5" height="250" fill="#c41e1e" opacity="0.78"/><rect x="988.5" y="253.0" width="10.5" height="194" fill="#c41e1e" opacity="0.70"/><rect x="1001.0" y="272.0" width="10.5" height="156" fill="#ff2a2a" opacity="0.65"/><rect x="1013.5" y="239.0" width="10.5" height="222" fill="#c41e1e" opacity="0.74"/><rect x="1026.0" y="278.0" width="10.5" height="144" fill="#c41e1e" opacity="0.64"/><rect x="1038.5" y="256.0" width="10.5" height="188" fill="#c41e1e" opacity="0.70"/><rect x="1051.0" y="249.5" width="10.5" height="201" fill="#c41e1e" opacity="0.71"/><rect x="1063.5" y="271.5" width="10.5" height="157" fill="#c41e1e" opacity="0.66"/><rect x="1076.0" y="274.5" width="10.5" height="151" fill="#c41e1e" opacity="0.65"/><rect x="1088.5" y="275.5" width="10.5" height="149" fill="#ff2a2a" opacity="0.64"/><rect x="1101.0" y="287.5" width="10.5" height="125" fill="#c41e1e" opacity="0.61"/><rect x="1113.5" y="297.5" width="10.5" height="105" fill="#c41e1e" opacity="0.59"/><rect x="1126.0" y="292.0" width="10.5" height="116" fill="#c41e1e" opacity="0.60"/><rect x="1138.5" y="301.5" width="10.5" height="97" fill="#c41e1e" opacity="0.58"/><rect x="1151.0" y="308.0" width="10.5" height="84" fill="#c41e1e" opacity="0.56"/><rect x="1163.5" y="306.5" width="10.5" height="87" fill="#c41e1e" opacity="0.56"/><rect x="1176.0" y="315.0" width="10.5" height="70" fill="#ff2a2a" opacity="0.54"/><rect x="1188.5" y="318.5" width="10.5" height="63" fill="#c41e1e" opacity="0.53"/></g>
<text x="40" y="80" fill="#9a9590" font-family="Helvetica,Arial,sans-serif" font-size="20" letter-spacing="6">CUE 11 · PSYCHOLOGICAL ORCHESTRAL</text>
<text x="40" y="630" fill="#f0ebe3" font-family="Georgia,serif" font-size="32">Opaline Lament (Life From The Beyond)</text>
<text x="1160" y="630" text-anchor="end" fill="#9a9590" font-family="Helvetica,Arial,sans-serif" font-size="24" letter-spacing="3">2:24</text>
</svg>
