<svg xmlns="http://www.w3.org/2000/svg" viewBox="0 0 1200 675" width="1200" height="675" role="img" aria-label="The Room Forgets You, Psychological Orchestral horror cue, 2m 16s">
<rect width="1200" height="675" fill="#050505"/>
<g><rect x="1.0" y="318.5" width="10.5" height="63" fill="#c41e1e" opacity="0.53"/><rect x="13.5" y="315.0" width="10.5" height="70" fill="#c41e1e" opacity="0.54"/><rect x="26.0" y="310.0" width="10.5" height="80" fill="#c41e1e" opacity="0.55"/><rect x="38.5" y="303.0" width="10.5" height="94" fill="#ff2a2a" opacity="0.57"/><rect x="51.0" y="307.5" width="10.5" height="85" fill="#c41e1e" opacity="0.56"/><rect x="63.5" y="300.5" width="10.5" height="99" fill="#c41e1e" opacity="0.58"/><rect x="76.0" y="287.5" width="10.5" height="125" fill="#c41e1e" opacity="0.61"/><rect x="88.5" y="287.5" width="10.5" height="125" fill="#c41e1e" opacity="0.61"/><rect x="101.0" y="288.5" width="10.5" height="123" fill="#c41e1e" opacity="0.61"/><rect x="113.5" y="290.0" width="10.5" height="120" fill="#c41e1e" opacity="0.61"/><rect x="126.0" y="258.5" width="10.5" height="183" fill="#ff2a2a" opacity="0.69"/><rect x="138.5" y="289.0" width="10.5" height="122" fill="#c41e1e" opacity="0.61"/><rect x="151.0" y="254.0" width="10.5" height="192" fill="#c41e1e" opacity="0.70"/><rect x="163.5" y="259.5" width="10.5" height="181" fill="#c41e1e" opacity="0.69"/><rect x="176.0" y="230.5" width="10.5" height="239" fill="#c41e1e" opacity="0.76"/><rect x="188.5" y="224.5" width="10.5" height="251" fill="#c41e1e" opacity="0.78"/><rect x="201.0" y="272.0" width="10.5" height="156" fill="#c41e1e" opacity="0.65"/><rect x="213.5" y="239.5" width="10.5" height="221" fill="#ff2a2a" opacity="0.74"/><rect x="226.0" y="260.5" width="10.5" height="179" fill="#c41e1e" opacity="0.68"/><rect x="238.5" y="272.5" width="10.5" height="155" fill="#c41e1e" opacity="0.65"/><rect x="251.0" y="235.0" width="10.5" height="230" fill="#c41e1e" opacity="0.75"/><rect x="263.5" y="229.5" width="10.5" height="241" fill="#c41e1e" opacity="0.77"/><rect x="276.0" y="210.0" width="10.5" height="280" fill="#c41e1e" opacity="0.82"/><rect x="288.5" y="184.0" width="10.5" height="332" fill="#c41e1e" opacity="0.89"/><rect x="301.0" y="221.0" width="10.5" height="258" fill="#ff2a2a" opacity="0.79"/><rect x="313.5" y="185.0" width="10.5" height="330" fill="#c41e1e" opacity="0.88"/><rect x="326.0" y="250.0" width="10.5" height="200" fill="#c41e1e" opacity="0.71"/><rect x="338.5" y="200.0" width="10.5" height="300" fill="#c41e1e" opacity="0.84"/><rect x="351.0" y="255.5" width="10.5" height="189" fill="#c41e1e" opacity="0.70"/><rect x="363.5" y="242.5" width="10.5" height="215" fill="#c41e1e" opacity="0.73"/><rect x="376.0" y="225.0" width="10.5" height="250" fill="#c41e1e" opacity="0.78"/><rect x="388.5" y="153.0" width="10.5" height="394" fill="#ff2a2a" opacity="0.97"/><rect x="401.0" y="180.0" width="10.5" height="340" fill="#c41e1e" opacity="0.90"/><rect x="413.5" y="157.5" width="10.5" height="385" fill="#c41e1e" opacity="0.95"/><rect x="426.0" y="248.5" width="10.5" height="203" fill="#c41e1e" opacity="0.72"/><rect x="438.5" y="221.5" width="10.5" height="257" fill="#c41e1e" opacity="0.79"/><rect x="451.0" y="174.5" width="10.5" height="351" fill="#c41e1e" opacity="0.91"/><rect x="463.5" y="228.5" width="10.5" height="243" fill="#c41e1e" opacity="0.77"/><rect x="476.0" y="191.0" width="10.5" height="318" fill="#ff2a2a" opacity="0.87"/><rect x="488.5" y="212.0" width="10.5" height="276" fill="#c41e1e" opacity="0.81"/><rect x="501.0" y="138.0" width="10.5" height="424" fill="#c41e1e" opacity="1.01"/><rect x="513.5" y="199.5" width="10.5" height="301" fill="#c41e1e" opacity="0.84"/><rect x="526.0" y="130.0" width="10.5" height="440" fill="#c41e1e" opacity="1.03"/><rect x="538.5" y="236.0" width="10.5" height="228" fill="#c41e1e" opacity="0.75"/><rect x="551.0" y="143.5" width="10.5" height="413" fill="#c41e1e" opacity="0.99"/><rect x="563.5" y="236.0" width="10.5" height="228" fill="#ff2a2a" opacity="0.75"/><rect x="576.0" y="170.5" width="10.5" height="359" fill="#c41e1e" opacity="0.92"/><rect x="588.5" y="217.0" width="10.5" height="266" fill="#c41e1e" opacity="0.80"/><rect x="601.0" y="168.5" width="10.5" height="363" fill="#c41e1e" opacity="0.93"/><rect x="613.5" y="134.5" width="10.5" height="431" fill="#c41e1e" opacity="1.01"/><rect x="626.0" y="234.0" width="10.5" height="232" fill="#c41e1e" opacity="0.75"/><rect x="638.5" y="163.5" width="10.5" height="373" fill="#c41e1e" opacity="0.94"/><rect x="651.0" y="140.0" width="10.5" height="420" fill="#ff2a2a" opacity="1.00"/><rect x="663.5" y="216.5" width="10.5" height="267" fill="#c41e1e" opacity="0.80"/><rect x="676.0" y="217.0" width="10.5" height="266" fill="#c41e1e" opacity="0.80"/><rect x="688.5" y="198.5" width="10.5" height="303" fill="#c41e1e" opacity="0.85"/><rect x="701.0" y="182.0" width="10.5" height="336" fill="#c41e1e" opacity="0.89"/><rect x="713.5" y="182.5" width="10.5" height="335" fill="#c41e1e" opacity="0.89"/><rect x="726.0" y="249.5" width="10.5" height="201" fill="#c41e1e" opacity="0.71"/><rect x="738.5" y="207.0" width="10.5" height="286" fill="#ff2a2a" opacity="0.82"/><rect x="751.0" y="220.5" width="10.5" height="259" fill="#c41e1e" opacity="0.79"/><rect x="763.5" y="221.5" width="10.5" height="257" fill="#c41e1e" opacity="0.79"/><rect x="776.0" y="202.5" width="10.5" height="295" fill="#c41e1e" opacity="0.84"/><rect x="788.5" y="250.0" width="10.5" height="200" fill="#c41e1e" opacity="0.71"/><rect x="801.0" y="255.5" width="10.5" height="189" fill="#c41e1e" opacity="0.70"/><rect x="813.5" y="215.5" width="10.5" height="269" fill="#c41e1e" opacity="0.80"/><rect x="826.0" y="231.0" width="10.5" height="238" fill="#ff2a2a" opacity="0.76"/><rect x="838.5" y="244.5" width="10.5" height="211" fill="#c41e1e" opacity="0.73"/><rect x="851.0" y="174.0" width="10.5" height="352" fill="#c41e1e" opacity="0.91"/><rect x="863.5" y="198.0" width="10.5" height="304" fill="#c41e1e" opacity="0.85"/><rect x="876.0" y="205.0" width="10.5" height="290" fill="#c41e1e" opacity="0.83"/><rect x="888.5" y="210.0" width="10.5" height="280" fill="#c41e1e" opacity="0.82"/><rect x="901.0" y="200.5" width="10.5" height="299" fill="#c41e1e" opacity="0.84"/><rect x="913.5" y="196.5" width="10.5" height="307" fill="#ff2a2a" opacity="0.85"/><rect x="926.0" y="229.5" width="10.5" height="241" fill="#c41e1e" opacity="0.77"/><rect x="938.5" y="216.5" width="10.5" height="267" fill="#c41e1e" opacity="0.80"/><rect x="951.0" y="229.5" width="10.5" height="241" fill="#c41e1e" opacity="0.77"/><rect x="963.5" y="239.5" width="10.5" height="221" fill="#c41e1e" opacity="0.74"/><rect x="976.0" y="248.5" width="10.5" height="203" fill="#c41e1e" opacity="0.72"/><rect x="988.5" y="221.0" width="10.5" height="258" fill="#c41e1e" opacity="0.79"/><rect x="1001.0" y="240.0" width="10.5" height="220" fill="#ff2a2a" opacity="0.74"/><rect x="1013.5" y="252.5" width="10.5" height="195" fill="#c41e1e" opacity="0.71"/><rect x="1026.0" y="282.0" width="10.5" height="136" fill="#c41e1e" opacity="0.63"/><rect x="1038.5" y="247.5" width="10.5" height="205" fill="#c41e1e" opacity="0.72"/><rect x="1051.0" y="257.0" width="10.5" height="186" fill="#c41e1e" opacity="0.69"/><rect x="1063.5" y="288.0" width="10.5" height="124" fill="#c41e1e" opacity="0.61"/><rect x="1076.0" y="262.5" width="10.5" height="175" fill="#c41e1e" opacity="0.68"/><rect x="1088.5" y="293.0" width="10.5" height="114" fill="#ff2a2a" opacity="0.60"/><rect x="1101.0" y="293.0" width="10.5" height="114" fill="#c41e1e" opacity="0.60"/><rect x="1113.5" y="285.5" width="10.5" height="129" fill="#c41e1e" opacity="0.62"/><rect x="1126.0" y="289.0" width="10.5" height="122" fill="#c41e1e" opacity="0.61"/><rect x="1138.5" y="306.5" width="10.5" height="87" fill="#c41e1e" opacity="0.56"/><rect x="1151.0" y="306.0" width="10.5" height="88" fill="#c41e1e" opacity="0.57"/><rect x="1163.5" y="313.5" width="10.5" height="73" fill="#c41e1e" opacity="0.55"/><rect x="1176.0" y="314.5" width="10.5" height="71" fill="#ff2a2a" opacity="0.54"/><rect x="1188.5" y="318.5" width="10.5" height="63" fill="#c41e1e" opacity="0.53"/></g>
<text x="40" y="80" fill="#9a9590" font-family="Helvetica,Arial,sans-serif" font-size="20" letter-spacing="6">CUE 20 · PSYCHOLOGICAL ORCHESTRAL</text>
<text x="40" y="630" fill="#f0ebe3" font-family="Georgia,serif" font-size="32">The Room Forgets You</text>
<text x="1160" y="630" text-anchor="end" fill="#9a9590" font-family="Helvetica,Arial,sans-serif" font-size="24" letter-spacing="3">2:16</text>
</svg>
